<svg width="2729" height="976" viewBox="0 0 2729 976" fill="none" xmlns="http://www.w3.org/2000/svg">
<g clip-path="url(#clip0_8018_2413)">
<path d="M2728.71 0H0V975.57H2728.71V0Z" fill="#022948"/>
<path d="M880.73 487.77C880.73 684.57 720.631 844.7 523.831 844.7C522.891 844.7 521.971 844.7 521.021 844.67V706.97C521.961 707 522.881 707 523.831 707C644.891 707 743.04 608.83 743.04 487.77H880.74H880.73Z" fill="#ED6E79"/>
<path d="M880.731 487.77H743.031C743.031 366.71 644.891 268.56 523.821 268.56C523.231 268.56 522.661 268.56 522.061 268.59V130.87H523.821C720.621 130.87 880.721 290.97 880.721 487.77H880.731Z" fill="#8BCCAE"/>
<path d="M522.08 130.87V268.59C460.14 269.05 404.31 295.24 364.73 336.95L267.48 239.7C332.01 173.01 422.27 131.35 522.08 130.87Z" fill="#64B4B1"/>
<path d="M304.6 487.77C304.6 544.66 326.28 596.5 361.81 635.48L265.53 733.84C204.46 669.77 166.9 583.05 166.9 487.77C166.9 392.49 205.24 303.96 267.47 239.7L364.72 336.95C327.46 376.23 304.59 429.34 304.59 487.77H304.6Z" fill="#BAA5CE"/>
<path d="M521.03 706.98V844.68C420.65 843.92 329.98 801.48 265.54 733.85L361.82 635.49C401.35 678.8 457.99 706.2 521.03 706.98Z" fill="#FAAC6E"/>
<path d="M1097.69 687.24C1067.62 669.57 1043.86 644.91 1026.39 613.25C1008.92 581.6 1000.18 545.96 1000.18 506.34C1000.18 466.72 1008.92 431.09 1026.39 399.43C1043.86 367.78 1067.62 343.12 1097.69 325.44C1127.75 307.77 1161 298.93 1197.46 298.93C1233.92 298.93 1267.72 307.77 1297.79 325.44C1327.85 343.12 1351.52 367.68 1368.81 399.14C1386.09 430.6 1394.74 466.34 1394.74 506.34C1394.74 546.34 1386.09 582.08 1368.81 613.54C1351.52 645 1327.85 669.57 1297.79 687.24C1267.72 704.92 1234.28 713.75 1197.46 713.75C1160.64 713.75 1127.75 704.92 1097.69 687.24ZM1271.58 644.34C1293.56 631.38 1310.84 612.87 1323.44 588.84C1336.03 564.81 1342.32 536.98 1342.32 505.31C1342.32 473.64 1336.02 445.34 1323.44 421.5C1310.85 397.67 1293.65 379.26 1271.86 366.29C1250.06 353.33 1225.26 346.84 1197.46 346.84C1169.66 346.84 1144.85 353.33 1123.06 366.29C1101.26 379.26 1084.07 397.67 1071.49 421.5C1058.89 445.34 1052.61 473.28 1052.61 505.31C1052.61 537.34 1058.9 564.81 1071.49 588.84C1084.08 612.87 1101.36 631.37 1123.35 644.34C1145.33 657.31 1170.04 663.79 1197.47 663.79C1224.9 663.79 1249.61 657.31 1271.59 644.34H1271.58Z" fill="white"/>
<path d="M1616.98 407.53C1619.44 408.92 1621.8 410.44 1624.05 412.07C1635.94 420.7 1645.71 431.39 1653.05 444.08C1654.66 446.86 1656.16 449.7 1657.55 452.6C1667.38 472.94 1672.3 497.7 1672.3 526.85V707.68H1621.9V541.33C1621.9 511.67 1619.94 480.16 1595.16 459.95C1568.54 438.25 1529.49 440.41 1505.01 464.2C1494.56 474.35 1485.92 486.75 1480.26 500.32C1474.19 514.89 1471.97 530.91 1470.73 546.55C1470.64 547.64 1470.56 548.72 1470.49 549.81C1470.14 555.1 1469.96 560.4 1469.96 565.71V707.69H1418.28V287.32H1470.26V463.85C1470.26 463.85 1480.27 436.63 1498.94 420.18C1510.09 410.36 1521.89 404.78 1534.7 400.33C1549.99 395.02 1566.45 393.93 1582.5 396.13C1590.51 397.23 1598.38 399.32 1605.89 402.32C1609.67 403.83 1613.44 405.53 1616.98 407.54V407.53Z" fill="white"/>
<path d="M1755.24 265.17V707.68H1702.86V265.17H1755.24Z" fill="white"/>
<path d="M2135.74 705.23C2133.46 704.37 2131.2 703.41 2128.96 702.36C2123.06 699.58 2117.4 696.28 2112.08 692.51C2099.34 683.46 2088.26 671.59 2081.12 657.63C2075.76 647.15 2073.06 635.64 2072.34 623.92H2123.98C2123.98 623.92 2125.9 632.95 2126.2 633.76C2131.36 647.96 2144.29 659.22 2158.1 664.72C2159.83 665.41 2161.6 666.02 2163.4 666.53C2175.26 669.94 2187.9 669.58 2200.12 669.58C2213.58 669.58 2227.65 667.67 2239.75 661.45C2247.92 657.25 2255.14 650.8 2259.07 642.5C2262.35 635.59 2263.22 627.7 2262.41 620.1C2261.8 614.39 2260.24 608.7 2257.21 603.82C2251.29 594.26 2239.25 590.28 2229.19 586.53C2216.15 581.67 2202.68 577.94 2189.18 574.59C2165.77 568.6 2146.67 562.51 2131.91 556.32C2117.13 550.14 2104.47 540.96 2093.92 528.78C2083.36 516.61 2078.09 500.59 2078.09 480.73C2078.09 464.99 2082.88 450.57 2092.48 437.46C2102.07 424.35 2115.69 413.95 2133.35 406.27C2150.99 398.6 2171.14 394.75 2193.79 394.75C2228.7 394.75 2259.42 401.26 2280.92 418.49C2302.41 435.73 2312.38 456.47 2313.92 486.44H2262.85C2261.7 470.33 2257.01 460.79 2244.93 451.04C2232.84 441.3 2212.41 438.03 2192.07 438.03C2173.27 438.03 2160.66 442.27 2149.53 450.14C2138.39 458.01 2132.43 467.56 2132.43 480.29C2132.43 490.41 2133.84 499.2 2140.55 505.75C2147.26 512.31 2155.71 517.55 2165.88 521.49C2176.04 525.42 2190.15 529.83 2208.19 534.7C2230.83 540.7 2249.25 546.6 2263.45 552.4C2277.64 558.21 2289.83 566.92 2300 578.53C2310.16 590.15 2315.44 605.32 2315.83 624.05C2315.83 640.91 2311.03 656.08 2301.44 669.57C2291.84 683.06 2278.32 693.65 2260.86 701.32C2239.98 710.5 2217.69 712.67 2195.11 713.02C2194.88 713.02 2194.66 713.02 2194.43 713.03C2174.42 713.32 2154.46 712.3 2135.76 705.21L2135.74 705.23Z" fill="white"/>
<path d="M2381.73 705.23C2379.45 704.37 2377.19 703.41 2374.95 702.36C2369.05 699.58 2363.39 696.28 2358.07 692.51C2345.33 683.46 2334.25 671.59 2327.11 657.63C2321.75 647.15 2319.05 635.64 2318.33 623.92H2369.97C2369.97 623.92 2371.89 632.95 2372.19 633.76C2377.35 647.96 2390.28 659.22 2404.09 664.72C2405.82 665.41 2407.59 666.02 2409.39 666.53C2421.25 669.94 2433.89 669.58 2446.11 669.58C2459.57 669.58 2473.64 667.67 2485.74 661.45C2493.91 657.25 2501.13 650.8 2505.06 642.5C2508.34 635.59 2509.21 627.7 2508.4 620.1C2507.79 614.39 2506.23 608.7 2503.2 603.82C2497.28 594.26 2485.24 590.28 2475.18 586.53C2462.14 581.67 2448.67 577.94 2435.17 574.59C2411.76 568.6 2392.66 562.51 2377.9 556.32C2363.12 550.14 2350.46 540.96 2339.91 528.78C2329.35 516.61 2324.08 500.59 2324.08 480.73C2324.08 464.99 2328.87 450.57 2338.47 437.46C2348.06 424.35 2361.68 413.95 2379.34 406.27C2396.98 398.6 2417.13 394.75 2439.78 394.75C2474.69 394.75 2505.41 401.26 2526.91 418.49C2548.4 435.73 2558.37 456.47 2559.91 486.44H2508.84C2507.69 470.33 2503 460.79 2490.92 451.04C2478.83 441.3 2458.4 438.03 2438.06 438.03C2419.26 438.03 2406.65 442.27 2395.52 450.14C2384.38 458.01 2378.42 467.56 2378.42 480.29C2378.42 490.41 2379.83 499.2 2386.54 505.75C2393.25 512.31 2401.7 517.55 2411.87 521.49C2422.03 525.42 2436.14 529.83 2454.18 534.7C2476.82 540.7 2495.24 546.6 2509.44 552.4C2523.63 558.21 2535.82 566.92 2545.99 578.53C2556.15 590.15 2561.43 605.32 2561.82 624.05C2561.82 640.91 2557.02 656.08 2547.43 669.57C2537.83 683.06 2524.31 693.65 2506.85 701.32C2485.97 710.5 2463.68 712.67 2441.1 713.02C2440.87 713.02 2440.65 713.02 2440.42 713.03C2420.41 713.32 2400.45 712.3 2381.75 705.21L2381.73 705.23Z" fill="white"/>
<path d="M2071.74 555C2071.74 467.33 2014.52 396.27 1924.78 396.27C1833.62 396.27 1777.82 467.33 1777.82 555C1777.82 656.43 1843.62 715.13 1924.78 714.37C2020.21 713.48 2053.89 667.94 2067.01 604.47H2017.33C2011.98 628.28 1997.7 648.96 1974.02 659.36C1938.35 675.05 1891.54 667.51 1863.59 640.33C1841.88 619.19 1830.33 589.19 1829.19 559.17H2071.7C2071.73 557.79 2071.73 556.39 2071.73 555.01L2071.74 555ZM1832.64 523.17C1843.44 476.76 1878.16 442.77 1924.14 442.77C1967.34 442.77 2003.87 476.76 2015.4 523.17H1832.64Z" fill="white"/>
</g>
<defs>
<clipPath id="clip0_8018_2413">
<rect width="2728.71" height="975.57" fill="white"/>
</clipPath>
</defs>
</svg>
