<svg width="306" height="91" viewBox="0 0 306 91" fill="none" xmlns="http://www.w3.org/2000/svg">
<g clip-path="url(#clip0_8240_5821)">
<path d="M91 45.498C91 70.5863 70.5902 90.9999 45.5019 90.9999C45.3821 90.9999 45.2648 90.9999 45.1437 90.9961V73.4419C45.2635 73.4457 45.3808 73.4457 45.5019 73.4457C60.9348 73.4457 73.4471 60.9309 73.4471 45.498H91.0013H91Z" fill="#ED6E79"/>
<path d="M91 45.4981H73.4458C73.4458 30.0652 60.9348 17.5529 45.5006 17.5529C45.4254 17.5529 45.3527 17.5529 45.2763 17.5567V0H45.5006C70.5889 0 90.9987 20.4098 90.9987 45.4981H91Z" fill="#8BCCAE"/>
<path d="M45.2775 0V17.5567C37.3813 17.6154 30.264 20.9541 25.2183 26.2714L12.8208 13.8738C21.0471 5.37334 32.5536 0.0624659 45.2775 0Z" fill="#64B4B1"/>
<path d="M17.5542 45.498C17.5542 52.7505 20.318 59.3591 24.8474 64.3283L12.5735 76.8674C4.7882 68.6996 0 57.6445 0 45.498C0 33.3516 4.88763 22.0657 12.8208 13.8737L25.2184 26.2713C20.4684 31.2788 17.5529 38.0493 17.5529 45.498H17.5542Z" fill="#BAA5CE"/>
<path d="M45.1437 73.4432V90.9974C32.3471 90.9005 20.7884 85.4902 12.5735 76.8687L24.8474 64.3296C29.8868 69.8508 37.1073 73.3438 45.1437 73.4432Z" fill="#FAAC6E"/>
<path d="M118.658 70.9267C114.825 68.6741 111.796 65.5304 109.569 61.4944C107.342 57.4596 106.228 52.9162 106.228 47.8653C106.228 42.8145 107.342 38.2724 109.569 34.2363C111.796 30.2015 114.825 27.0578 118.658 24.804C122.49 22.5514 126.729 21.4244 131.377 21.4244C136.025 21.4244 140.334 22.5514 144.167 24.804C147.999 27.0578 151.017 30.1888 153.221 34.1993C155.424 38.2099 156.527 42.7661 156.527 47.8653C156.527 52.9646 155.424 57.5208 153.221 61.5313C151.017 65.5419 147.999 68.6741 144.167 70.9267C140.334 73.1806 136.071 74.3062 131.377 74.3062C126.683 74.3062 122.49 73.1806 118.658 70.9267ZM140.825 65.459C143.627 63.8069 145.83 61.4472 147.436 58.3838C149.041 55.3204 149.843 51.7726 149.843 47.7353C149.843 43.698 149.04 40.0903 147.436 37.0511C145.831 34.0132 143.638 31.6663 140.86 30.0129C138.081 28.3607 134.92 27.5333 131.376 27.5333C127.832 27.5333 124.669 28.3607 121.891 30.0129C119.112 31.6663 116.921 34.0132 115.317 37.0511C113.711 40.0903 112.91 43.6521 112.91 47.7353C112.91 51.8185 113.712 55.3204 115.317 58.3838C116.922 61.4472 119.125 63.8056 121.928 65.459C124.73 67.1125 127.88 67.9385 131.377 67.9385C134.874 67.9385 138.024 67.1125 140.826 65.459H140.825Z" fill="#022948"/>
<path d="M184.858 35.269C185.172 35.4461 185.473 35.6399 185.759 35.8477C187.275 36.9479 188.521 38.3107 189.456 39.9284C189.662 40.2828 189.853 40.6448 190.03 41.0145C191.283 43.6075 191.91 46.7639 191.91 50.48V73.5325H185.485V52.326C185.485 48.5449 185.235 44.5279 182.076 41.9515C178.683 39.1852 173.705 39.4605 170.584 42.4933C169.252 43.7873 168.15 45.368 167.429 47.0979C166.655 48.9553 166.372 50.9976 166.214 52.9914C166.203 53.1304 166.192 53.268 166.183 53.407C166.139 54.0814 166.116 54.757 166.116 55.4339V73.5337H159.528V19.9431H166.154V42.4474C166.154 42.4474 167.43 38.9774 169.81 36.8803C171.232 35.6284 172.736 34.9171 174.369 34.3498C176.318 33.6729 178.417 33.5339 180.463 33.8144C181.484 33.9546 182.487 34.2211 183.444 34.6035C183.926 34.796 184.407 35.0127 184.858 35.269Z" fill="#022948"/>
<path d="M202.482 17.1208V73.5325H195.805V17.1208H202.482Z" fill="#022948"/>
<path d="M250.99 73.2202C250.7 73.1106 250.412 72.9882 250.126 72.8543C249.374 72.4999 248.652 72.0793 247.974 71.5986C246.35 70.4449 244.938 68.9317 244.027 67.1521C243.344 65.8161 243 64.3488 242.908 62.8547H249.491C249.491 62.8547 249.736 64.0059 249.774 64.1091C250.432 65.9194 252.08 67.3548 253.841 68.0559C254.061 68.1439 254.287 68.2217 254.516 68.2867C256.028 68.7214 257.64 68.6755 259.198 68.6755C260.913 68.6755 262.707 68.432 264.25 67.6391C265.291 67.1037 266.212 66.2814 266.713 65.2233C267.131 64.3424 267.242 63.3366 267.138 62.3677C267.061 61.6398 266.862 60.9144 266.476 60.2923C265.721 59.0736 264.186 58.5662 262.903 58.0882C261.241 57.4686 259.524 56.9931 257.803 56.566C254.819 55.8024 252.384 55.0261 250.502 54.237C248.618 53.4491 247.004 52.2788 245.659 50.7261C244.313 49.1747 243.641 47.1324 243.641 44.6006C243.641 42.5941 244.252 40.7558 245.475 39.0845C246.698 37.4132 248.434 36.0874 250.686 35.1084C252.934 34.1306 255.503 33.6398 258.391 33.6398C262.841 33.6398 266.757 34.4697 269.498 36.6662C272.238 38.864 273.509 41.5079 273.705 45.3286H267.194C267.048 43.2748 266.45 42.0587 264.91 40.8157C263.369 39.5741 260.764 39.1572 258.171 39.1572C255.775 39.1572 254.167 39.6977 252.748 40.701C251.328 41.7043 250.568 42.9217 250.568 44.5446C250.568 45.8347 250.748 46.9552 251.604 47.7902C252.459 48.6265 253.536 49.2945 254.833 49.7968C256.128 50.2978 257.927 50.86 260.226 51.4808C263.113 52.2457 265.461 52.9978 267.271 53.7372C269.08 54.4779 270.634 55.5883 271.93 57.0683C273.226 58.5497 273.899 60.4835 273.948 62.8713C273.948 65.0206 273.337 66.9545 272.114 68.6742C270.89 70.3939 269.167 71.744 266.941 72.7218C264.279 73.892 261.437 74.1687 258.559 74.2133C258.53 74.2133 258.502 74.2133 258.472 74.2146C255.921 74.2515 253.377 74.1215 250.993 73.2177L250.99 73.2202Z" fill="#022948"/>
<path d="M282.349 73.2202C282.059 73.1106 281.771 72.9882 281.485 72.8543C280.733 72.4999 280.011 72.0793 279.333 71.5986C277.709 70.4449 276.297 68.9317 275.386 67.1521C274.703 65.8161 274.359 64.3488 274.267 62.8547H280.85C280.85 62.8547 281.095 64.0059 281.133 64.1091C281.791 65.9194 283.439 67.3548 285.2 68.0559C285.42 68.1439 285.646 68.2217 285.876 68.2867C287.388 68.7214 288.999 68.6755 290.557 68.6755C292.273 68.6755 294.066 68.432 295.609 67.6391C296.65 67.1037 297.571 66.2814 298.072 65.2233C298.49 64.3424 298.601 63.3366 298.498 62.3677C298.42 61.6398 298.221 60.9144 297.835 60.2923C297.08 59.0736 295.545 58.5662 294.263 58.0882C292.6 57.4686 290.883 56.9931 289.162 56.566C286.178 55.8024 283.743 55.0261 281.861 54.237C279.977 53.4491 278.363 52.2788 277.018 50.7261C275.672 49.1747 275 47.1324 275 44.6006C275 42.5941 275.611 40.7558 276.835 39.0845C278.057 37.4132 279.793 36.0874 282.045 35.1084C284.294 34.1306 286.862 33.6398 289.75 33.6398C294.2 33.6398 298.116 34.4697 300.857 36.6662C303.597 38.864 304.868 41.5079 305.064 45.3286H298.554C298.407 43.2748 297.809 42.0587 296.269 40.8157C294.728 39.5741 292.123 39.1572 289.53 39.1572C287.134 39.1572 285.526 39.6977 284.107 40.701C282.687 41.7043 281.928 42.9217 281.928 44.5446C281.928 45.8347 282.107 46.9552 282.963 47.7902C283.818 48.6265 284.895 49.2945 286.192 49.7968C287.487 50.2978 289.286 50.86 291.586 51.4808C294.472 52.2457 296.82 52.9978 298.63 53.7372C300.439 54.4779 301.993 55.5883 303.29 57.0683C304.585 58.5497 305.258 60.4835 305.308 62.8713C305.308 65.0206 304.696 66.9545 303.473 68.6742C302.249 70.3939 300.526 71.744 298.3 72.7218C295.638 73.892 292.797 74.1687 289.918 74.2133C289.889 74.2133 289.861 74.2133 289.831 74.2146C287.28 74.2515 284.736 74.1215 282.352 73.2177L282.349 73.2202Z" fill="#022948"/>
<path d="M242.832 54.0686C242.832 42.8923 235.537 33.8335 224.097 33.8335C212.476 33.8335 205.362 42.8923 205.362 54.0686C205.362 66.999 213.75 74.4822 224.097 74.3853C236.262 74.2718 240.556 68.4664 242.229 60.3751H235.895C235.213 63.4104 233.393 66.0468 230.374 67.3726C225.827 69.3727 219.859 68.4115 216.296 64.9466C213.529 62.2516 212.056 58.4272 211.911 54.6002H242.826C242.83 54.4243 242.83 54.2458 242.83 54.0699L242.832 54.0686ZM212.349 50.0109C213.726 44.0945 218.152 39.7614 224.014 39.7614C229.521 39.7614 234.178 44.0945 235.648 50.0109H212.349Z" fill="#022948"/>
</g>
<defs>
<clipPath id="clip0_8240_5821">
<rect width="305.305" height="91" fill="white"/>
</clipPath>
</defs>
</svg>
