<svg width="847" height="440" viewBox="0 0 847 440" fill="none" xmlns="http://www.w3.org/2000/svg">
<rect x="497.195" y="310.195" width="141.774" height="129.61" rx="3.70139" fill="white" stroke="#ECECFF" stroke-width="0.38962"/>
<rect x="516.758" y="337.359" width="107.953" height="12.1637" rx="0.77924" stroke="#ECECFF" stroke-width="0.38962"/>
<rect x="516.758" y="329.766" width="28.8889" height="3.04094" rx="1.52047" fill="#6360CC"/>
<rect x="516.758" y="367.766" width="107.953" height="12.1637" rx="0.77924" stroke="#ECECFF" stroke-width="0.38962"/>
<rect x="516.758" y="360.172" width="28.8889" height="3.04094" rx="1.52047" fill="#6360CC"/>
<rect x="516.758" y="389.828" width="7.29825" height="6.84211" rx="0.77924" stroke="#ECECFF" stroke-width="0.38962"/>
<rect x="527.402" y="392.102" width="27.3684" height="2.2807" rx="1.14035" fill="#ECECFF"/>
<rect x="516.758" y="406.57" width="107.953" height="15.2047" rx="1.9481" fill="#6360CC" stroke="#ECECFF" stroke-width="0.38962"/>
<rect y="226.336" width="304.664" height="146.341" rx="4.38596" fill="white"/>
<rect x="183.996" y="344.445" width="74.4544" height="9.41378" rx="0.877193" stroke="#ECECFF" stroke-width="0.438596"/>
<rect x="262.73" y="344.445" width="19.6834" height="9.41378" rx="0.877193" fill="#6360CC"/>
<circle cx="28.3547" cy="256.378" r="4.38596" fill="#6360CC"/>
<rect x="24.4062" y="264.273" width="19.2982" height="1.31579" rx="0.657895" fill="#ECECFF"/>
<rect x="24.4062" y="268.656" width="24.1228" height="1.31579" rx="0.657895" fill="#ECECFF"/>
<rect x="24.4062" y="273.047" width="12.7193" height="1.31579" rx="0.657895" fill="#ECECFF"/>
<rect x="61.6875" y="251.992" width="19.2982" height="2.19298" rx="1.09649" fill="#6360CC"/>
<rect x="61.6875" y="257.258" width="19.2982" height="1.31579" rx="0.657895" fill="#ECECFF"/>
<rect x="61.6875" y="261.641" width="14.0351" height="1.31579" rx="0.657895" fill="#ECECFF"/>
<rect x="61.6875" y="266.023" width="21.9298" height="1.31579" rx="0.657895" fill="#ECECFF"/>
<rect x="61.6875" y="270.414" width="16.6667" height="1.31579" rx="0.657895" fill="#ECECFF"/>
<rect x="61.6875" y="274.797" width="24.1228" height="1.31579" rx="0.657895" fill="#ECECFF"/>
<rect x="61.6875" y="279.188" width="12.7193" height="1.31579" rx="0.657895" fill="#ECECFF"/>
<rect x="98.9688" y="251.992" width="19.2982" height="2.19298" rx="1.09649" fill="#6360CC"/>
<rect x="98.9688" y="257.258" width="19.2982" height="1.31579" rx="0.657895" fill="#ECECFF"/>
<rect x="98.9688" y="261.641" width="14.0351" height="1.31579" rx="0.657895" fill="#ECECFF"/>
<rect x="98.9688" y="266.023" width="21.9298" height="1.31579" rx="0.657895" fill="#ECECFF"/>
<rect x="98.9688" y="270.414" width="16.6667" height="1.31579" rx="0.657895" fill="#ECECFF"/>
<rect x="98.9688" y="274.797" width="12.7193" height="1.31579" rx="0.657895" fill="#ECECFF"/>
<rect x="134.055" y="251.992" width="19.2982" height="2.19298" rx="1.09649" fill="#6360CC"/>
<rect x="134.055" y="257.258" width="19.2982" height="1.31579" rx="0.657895" fill="#ECECFF"/>
<rect x="134.055" y="261.641" width="14.0351" height="1.31579" rx="0.657895" fill="#ECECFF"/>
<rect x="134.055" y="266.023" width="21.9298" height="1.31579" rx="0.657895" fill="#ECECFF"/>
<rect x="134.055" y="270.414" width="12.7193" height="1.31579" rx="0.657895" fill="#ECECFF"/>
<rect y="326.461" width="304.664" height="1.7116" fill="#F5F9FC"/>
<rect x="23.9648" y="347.859" width="86.4356" height="2.56739" rx="1.2837" fill="#6360CC"/>
<rect x="509.266" y="40.9766" width="337.228" height="126.829" rx="5.03876" fill="white"/>
<circle cx="566.306" cy="83.2632" r="14.7476" fill="#ECECFF"/>
<path d="M564.944 79.4688H563.7V74.7789C563.245 75.204 562.709 75.5184 562.092 75.7222V74.5929C562.417 74.4866 562.77 74.2858 563.151 73.9906C563.532 73.6924 563.793 73.3455 563.935 72.9499H564.944V79.4688Z" fill="#6360CC"/>
<rect x="528.938" y="125.547" width="38.7985" height="1.51163" rx="0.755814" fill="#ECECFF"/>
<rect x="528.938" y="128.57" width="38.7985" height="1.51163" rx="0.755814" fill="#ECECFF"/>
<rect x="538.008" y="131.594" width="20.6589" height="1.51163" rx="0.755814" fill="#ECECFF"/>
<rect x="539.762" y="108.82" width="54.0745" height="5.89904" rx="2.94952" fill="#6360CC"/>
<circle cx="676.408" cy="83.2632" r="14.7476" fill="#ECECFF"/>
<path d="M676.065 78.3129V79.4688H671.702C671.75 79.0318 671.891 78.6185 672.128 78.2287C672.364 77.8361 672.83 77.3165 673.527 76.6699C674.088 76.1473 674.432 75.793 674.559 75.607C674.73 75.3502 674.816 75.0962 674.816 74.8453C674.816 74.5678 674.74 74.3552 674.59 74.2076C674.442 74.057 674.237 73.9817 673.974 73.9817C673.714 73.9817 673.508 74.06 673.354 74.2164C673.201 74.3729 673.112 74.6327 673.089 74.9959L671.849 74.8719C671.922 74.1869 672.154 73.6953 672.544 73.3971C672.934 73.099 673.421 72.9499 674.005 72.9499C674.646 72.9499 675.149 73.1226 675.515 73.468C675.882 73.8134 676.065 74.243 676.065 74.7567C676.065 75.049 676.011 75.328 675.905 75.5937C675.802 75.8565 675.636 76.1325 675.409 76.4219C675.259 76.6138 674.987 76.8898 674.594 77.25C674.202 77.6102 673.952 77.8494 673.846 77.9675C673.743 78.0856 673.658 78.2007 673.593 78.3129H676.065Z" fill="#6360CC"/>
<rect x="639.039" y="125.547" width="38.7985" height="1.51163" rx="0.755814" fill="#ECECFF"/>
<rect x="639.039" y="128.57" width="38.7985" height="1.51163" rx="0.755814" fill="#ECECFF"/>
<rect x="648.109" y="131.594" width="20.6589" height="1.51163" rx="0.755814" fill="#ECECFF"/>
<rect x="649.863" y="108.82" width="54.0745" height="5.89904" rx="2.94952" fill="#6360CC"/>
<circle cx="786.494" cy="83.2632" r="14.7476" fill="#ECECFF"/>
<path d="M781.911 77.746L783.116 77.5999C783.154 77.9069 783.258 78.1416 783.426 78.304C783.594 78.4664 783.798 78.5476 784.037 78.5476C784.294 78.5476 784.509 78.4502 784.684 78.2553C784.861 78.0605 784.949 77.7977 784.949 77.467C784.949 77.1541 784.865 76.9061 784.697 76.723C784.529 76.54 784.323 76.4484 784.081 76.4484C783.922 76.4484 783.731 76.4794 783.51 76.5414L783.647 75.5273C783.984 75.5362 784.241 75.4638 784.418 75.3103C784.595 75.1538 784.684 74.9472 784.684 74.6903C784.684 74.4718 784.619 74.2976 784.489 74.1677C784.359 74.0378 784.186 73.9729 783.971 73.9729C783.758 73.9729 783.576 74.0467 783.426 74.1943C783.275 74.3419 783.184 74.5574 783.151 74.8409L782.004 74.646C782.084 74.2533 782.204 73.9404 782.363 73.7071C782.525 73.471 782.75 73.2864 783.036 73.1536C783.326 73.0178 783.649 72.9499 784.006 72.9499C784.617 72.9499 785.107 73.1447 785.476 73.5344C785.78 73.8533 785.932 74.2135 785.932 74.615C785.932 75.1848 785.621 75.6395 784.998 75.979C785.37 76.0587 785.667 76.2374 785.888 76.5149C786.113 76.7924 786.225 77.1275 786.225 77.5202C786.225 78.09 786.017 78.5756 785.6 78.9772C785.184 79.3787 784.666 79.5795 784.046 79.5795C783.458 79.5795 782.971 79.4112 782.584 79.0746C782.198 78.7351 781.973 78.2922 781.911 77.746Z" fill="#6360CC"/>
<rect x="749.133" y="125.547" width="38.7985" height="1.51163" rx="0.755814" fill="#ECECFF"/>
<rect x="749.133" y="128.57" width="38.7985" height="1.51163" rx="0.755814" fill="#ECECFF"/>
<rect x="758.203" y="131.594" width="20.6589" height="1.51163" rx="0.755814" fill="#ECECFF"/>
<rect x="759.957" y="108.82" width="54.0745" height="5.89904" rx="2.94952" fill="#6360CC"/>
<rect x="60.4883" width="157.049" height="175.61" rx="7.31707" fill="white"/>
<path d="M110.088 80.0454C109.975 80.1034 109.847 80.0018 109.87 79.8722L110.113 78.4878L109.081 77.5056C108.985 77.4137 109.035 77.2457 109.164 77.2276L110.598 77.0239L111.237 75.7575C111.295 75.6433 111.451 75.6433 111.508 75.7575L112.148 77.0239L113.581 77.2276C113.71 77.2457 113.76 77.4137 113.664 77.5056L112.633 78.4878L112.876 79.8722C112.899 80.0018 112.77 80.1034 112.657 80.0454L111.372 79.3852L110.088 80.0454Z" fill="#6360CC"/>
<path d="M116.233 80.0454C116.12 80.1034 115.991 80.0018 116.014 79.8722L116.257 78.4878L115.226 77.5056C115.13 77.4137 115.18 77.2457 115.309 77.2276L116.742 77.0239L117.382 75.7575C117.439 75.6433 117.595 75.6433 117.653 75.7575L118.292 77.0239L119.726 77.2276C119.855 77.2457 119.905 77.4137 119.808 77.5056L118.777 78.4878L119.02 79.8722C119.043 80.0018 118.915 80.1034 118.802 80.0454L117.517 79.3852L116.233 80.0454Z" fill="#6360CC"/>
<path d="M122.381 80.0454C122.268 80.1034 122.14 80.0018 122.163 79.8722L122.406 78.4878L121.374 77.5056C121.278 77.4137 121.328 77.2457 121.457 77.2276L122.891 77.0239L123.53 75.7575C123.588 75.6433 123.744 75.6433 123.801 75.7575L124.441 77.0239L125.874 77.2276C126.003 77.2457 126.053 77.4137 125.957 77.5056L124.926 78.4878L125.169 79.8722C125.192 80.0018 125.063 80.1034 124.95 80.0454L123.665 79.3852L122.381 80.0454Z" fill="#6360CC"/>
<path d="M128.525 80.0454C128.413 80.1034 128.284 80.0018 128.307 79.8722L128.55 78.4878L127.519 77.5056C127.423 77.4137 127.473 77.2457 127.602 77.2276L129.035 77.0239L129.675 75.7575C129.732 75.6433 129.888 75.6433 129.946 75.7575L130.585 77.0239L132.019 77.2276C132.148 77.2457 132.198 77.4137 132.101 77.5056L131.07 78.4878L131.313 79.8722C131.336 80.0018 131.208 80.1034 131.095 80.0454L129.81 79.3852L128.525 80.0454Z" fill="#6360CC"/>
<path d="M134.674 80.0454C134.561 80.1034 134.433 80.0018 134.456 79.8722L134.699 78.4878L133.667 77.5056C133.571 77.4137 133.621 77.2457 133.75 77.2276L135.184 77.0239L135.823 75.7575C135.881 75.6433 136.037 75.6433 136.094 75.7575L136.733 77.0239L138.167 77.2276C138.296 77.2457 138.346 77.4137 138.25 77.5056L137.219 78.4878L137.462 79.8722C137.484 80.0018 137.356 80.1034 137.243 80.0454L135.958 79.3852L134.674 80.0454Z" fill="#6360CC"/>
<ellipse cx="137.58" cy="47.1189" rx="21.4158" ry="21.4158" fill="#ECECFF"/>
<rect x="83.3281" y="98.5391" width="56.3415" height="2.19512" rx="1.09756" fill="#ECECFF"/>
<rect x="83.3281" y="102.93" width="56.3415" height="2.19512" rx="1.09756" fill="#ECECFF"/>
<rect x="96.5" y="107.32" width="30" height="2.19512" rx="1.09756" fill="#ECECFF"/>
<rect x="106.172" y="134.211" width="61.392" height="8.56633" rx="4.28316" fill="#6360CC"/>
<rect x="723.797" y="216.547" width="114.844" height="175" rx="5.60547" fill="white"/>
<path d="M723.797 222.152C723.797 219.057 726.307 216.547 729.402 216.547H833.035C836.131 216.547 838.641 219.057 838.641 222.152V311.703H723.797V222.152Z" fill="#ECECFF"/>
<path fill-rule="evenodd" clip-rule="evenodd" d="M772.828 250.336H788.52C791.545 250.336 793.058 250.336 794.118 251.106C794.461 251.355 794.762 251.656 795.011 251.999C795.781 253.059 795.781 254.572 795.781 257.598V271.318V271.611C795.781 274.636 795.781 276.149 795.011 277.209C794.762 277.552 794.461 277.853 794.118 278.102C793.058 278.872 791.545 278.872 788.52 278.872H772.828C769.803 278.872 768.29 278.872 767.229 278.102C766.887 277.853 766.586 277.552 766.337 277.209C765.566 276.149 765.566 274.636 765.566 271.611V271.318V257.598C765.566 254.572 765.566 253.059 766.337 251.999C766.586 251.656 766.887 251.355 767.229 251.106C768.29 250.336 769.803 250.336 772.828 250.336ZM791.133 258.861C791.133 261 789.398 262.735 787.259 262.735C785.12 262.735 783.385 261 783.385 258.861C783.385 256.722 785.12 254.987 787.259 254.987C789.398 254.987 791.133 256.722 791.133 258.861ZM772.021 262.991L768.342 269.773C768.198 270.038 768.126 270.171 768.071 270.309C767.988 270.517 767.932 270.735 767.906 270.958C767.889 271.106 767.889 271.257 767.889 271.559C767.889 273.047 767.889 273.79 768.118 274.382C768.463 275.274 769.168 275.979 770.06 276.324C770.652 276.553 771.395 276.553 772.883 276.553H788.793C789.97 276.553 790.558 276.553 791.037 276.409C792.129 276.08 792.982 275.227 793.311 274.135C793.455 273.656 793.455 273.068 793.455 271.891C793.455 271.548 793.455 271.376 793.433 271.21C793.384 270.837 793.253 270.48 793.049 270.163C792.959 270.023 792.848 269.892 792.626 269.63L792.626 269.63L792.626 269.63L790.543 267.174L790.543 267.174C789.664 266.137 789.225 265.619 788.659 265.498C788.477 265.459 788.289 265.45 788.104 265.472C787.529 265.54 787.044 266.015 786.072 266.966L786.072 266.966L785.02 267.995C783.93 269.062 783.385 269.596 782.759 269.638C782.558 269.651 782.357 269.629 782.164 269.572C781.562 269.394 781.147 268.754 780.317 267.475L777.274 262.785L777.274 262.785L777.274 262.785C776.173 261.09 775.623 260.242 774.888 260.117C774.656 260.078 774.419 260.087 774.191 260.145C773.467 260.327 772.985 261.215 772.021 262.991Z" fill="#6360CC"/>
<rect x="735.828" y="336.859" width="48.207" height="2.80273" rx="1.40137" fill="#6360CC"/>
<rect x="735.828" y="341.344" width="40.3594" height="2.80273" rx="1.40137" fill="#6360CC"/>
<circle cx="739.191" cy="370.762" r="3.36328" fill="#ECECFF"/>
<rect x="744.234" y="369.922" width="12.8926" height="1.68164" rx="0.84082" fill="#ECECFF"/>
<rect x="734.734" y="324.828" width="20.7812" height="5.46875" fill="#ECECFF"/>
<rect x="265.363" y="67.5312" width="160.279" height="37.8298" rx="2.55102" fill="white"/>
<path fill-rule="evenodd" clip-rule="evenodd" d="M295.133 91.5556L287.574 78.4456C286.684 76.9011 286.238 76.1289 285.602 75.9931C285.402 75.9504 285.195 75.9502 284.995 75.9926C284.358 76.1272 283.912 76.8986 283.018 78.4414L275.427 91.5514C274.532 93.0971 274.085 93.87 274.286 94.4894C274.349 94.6843 274.452 94.8638 274.589 95.0162C275.025 95.5003 275.918 95.5003 277.704 95.5003H292.854C294.636 95.5003 295.528 95.5003 295.963 95.017C296.1 94.8649 296.204 94.6856 296.267 94.4909C296.468 93.8723 296.023 93.1001 295.133 91.5556ZM286.311 91.0978C286.311 90.5251 285.847 90.0608 285.274 90.0608C284.702 90.0608 284.237 90.5251 284.237 91.0978C284.237 91.6705 284.702 92.1348 285.274 92.1348C285.847 92.1348 286.311 91.6705 286.311 91.0978ZM285.674 87.7295C285.674 87.9496 285.495 88.1281 285.275 88.1281C285.055 88.1281 284.877 87.9496 284.877 87.7295V84.1C284.877 83.8799 285.055 83.7014 285.275 83.7014C285.495 83.7014 285.674 83.8799 285.674 84.1V87.7295Z" fill="#FFD571"/>
<rect x="308.672" y="77.9922" width="75.1618" height="4.47984" rx="2.23992" fill="#ECECFF"/>
<rect x="308.672" y="88.9375" width="107.018" height="4.47984" rx="2.23992" fill="#ECECFF"/>
<rect x="265.363" y="7.80469" width="160.279" height="37.8298" rx="2.55102" fill="white"/>
<rect x="274.328" y="24.2344" width="104.53" height="4.47984" rx="2.23992" fill="#ECECFF"/>
<path d="M414.03 29.53L411.214 26.7142M411.214 26.7142L408.398 23.8984M411.214 26.7142L414.03 23.8984M411.214 26.7142L408.398 29.53" stroke="#F90D0D" stroke-width="0.382653" stroke-linecap="round" stroke-linejoin="round"/>
<g filter="url(#filter0_d_2566_4271)">
<circle cx="78.0488" cy="78.0488" r="78.0488" transform="matrix(1 0 0 -1 345 298.094)" fill="white"/>
</g>
<path d="M450.529 244.088C451.539 245.159 453.227 245.209 454.299 244.198L462.583 236.388C463.729 235.307 463.694 233.474 462.507 232.438L452.169 223.415C450.903 222.311 450.962 220.326 452.29 219.298L463.141 210.898C464.387 209.934 464.53 208.106 463.449 206.96L455.638 198.676C454.628 197.604 452.94 197.554 451.869 198.565L430.378 218.827C429.306 219.837 429.257 221.525 430.267 222.597L450.529 244.088Z" fill="#893EFB"/>
<path d="M398.917 248.522C397.845 249.533 397.796 251.22 398.806 252.292L406.616 260.575C407.697 261.722 409.53 261.686 410.566 260.499L419.539 250.209C420.641 248.946 422.62 249 423.651 250.321L432.104 261.151C433.071 262.389 434.893 262.528 436.036 261.45L444.27 253.687C445.342 252.676 445.391 250.989 444.381 249.917L424.119 228.426C423.108 227.355 421.421 227.305 420.349 228.315L398.917 248.522Z" fill="#5F41FB"/>
<path d="M395.552 198.122C394.542 197.05 392.854 197 391.783 198.011L383.499 205.821C382.353 206.901 382.388 208.735 383.576 209.771L393.864 218.743C395.128 219.845 395.073 221.825 393.752 222.856L382.984 231.254C381.745 232.22 381.606 234.043 382.684 235.186L390.446 243.42C391.457 244.491 393.144 244.541 394.216 243.53L415.648 223.324C416.72 222.313 416.77 220.625 415.759 219.554L395.552 198.122Z" fill="#893EFB"/>
<path d="M447.184 193.62C448.255 192.609 448.305 190.922 447.294 189.85L439.484 181.566C438.403 180.42 436.57 180.455 435.534 181.642L426.512 191.979C425.408 193.245 423.422 193.186 422.394 191.857L414.049 181.068C413.085 179.822 411.257 179.678 410.111 180.759L401.827 188.569C400.755 189.579 400.706 191.267 401.716 192.339L421.923 213.771C422.933 214.843 424.621 214.892 425.693 213.882L447.184 193.62Z" fill="#5F41FB"/>
<defs>
<filter id="filter0_d_2566_4271" x="313" y="125" width="220.098" height="220.094" filterUnits="userSpaceOnUse" color-interpolation-filters="sRGB">
<feFlood flood-opacity="0" result="BackgroundImageFix"/>
<feColorMatrix in="SourceAlpha" type="matrix" values="0 0 0 0 0 0 0 0 0 0 0 0 0 0 0 0 0 0 127 0" result="hardAlpha"/>
<feOffset dy="15"/>
<feGaussianBlur stdDeviation="16"/>
<feComposite in2="hardAlpha" operator="out"/>
<feColorMatrix type="matrix" values="0 0 0 0 0.537255 0 0 0 0 0.243137 0 0 0 0 0.984314 0 0 0 0.12 0"/>
<feBlend mode="normal" in2="BackgroundImageFix" result="effect1_dropShadow_2566_4271"/>
<feBlend mode="normal" in="SourceGraphic" in2="effect1_dropShadow_2566_4271" result="shape"/>
</filter>
</defs>
</svg>
