<svg width="664" height="374" viewBox="0 0 664 374" fill="none" xmlns="http://www.w3.org/2000/svg">
<rect width="664" height="374" rx="20.1114" fill="white"/>
<path d="M0.00390625 17.9372C0.00390625 8.03078 8.03467 0 17.9411 0H645.744C655.65 0 663.681 8.03077 663.681 17.9372V71.7489H0.00390625V17.9372Z" fill="white"/>
<ellipse cx="73.4115" cy="39.2164" rx="15.0834" ry="15.0836" fill="#C6C5FF"/>
<rect x="96.4922" y="34.8359" width="48.2674" height="8.04457" rx="4.02229" fill="#6360CC"/>
<rect x="322.223" y="33.8359" width="62.7803" height="10.7623" rx="5.38117" fill="#6360CC"/>
<rect x="393.973" y="33.8359" width="62.7803" height="10.7623" rx="5.38117" fill="white"/>
<rect x="465.719" y="33.8359" width="62.7803" height="10.7623" rx="5.38117" fill="white"/>
<rect x="537.469" y="24.8672" width="53.8117" height="28.6996" rx="8.96861" fill="#6360CC"/>
<rect x="410.277" y="132.734" width="169.364" height="170.947" rx="7.91422" fill="#ECECFF"/>
<path fill-rule="evenodd" clip-rule="evenodd" d="M482.521 187.703H505.814C514.357 187.703 518.628 187.703 521.623 189.879C522.59 190.581 523.44 191.432 524.143 192.399C526.319 195.393 526.319 199.665 526.319 208.208V232.358C526.319 236.718 526.319 238.898 525.73 240.657C524.595 244.049 521.933 246.71 518.542 247.845C516.783 248.434 514.603 248.434 510.243 248.434H478.091C473.732 248.434 471.552 248.434 469.792 247.845C466.401 246.71 463.739 244.049 462.605 240.657C462.016 238.898 462.016 236.718 462.016 232.358V208.208C462.016 199.665 462.016 195.393 464.191 192.399C464.894 191.432 465.744 190.581 466.711 189.879C469.706 187.703 473.977 187.703 482.521 187.703ZM516.426 205.84C516.426 210.393 512.735 214.084 508.182 214.084C503.629 214.084 499.938 210.393 499.938 205.84C499.938 201.287 503.629 197.596 508.182 197.596C512.735 197.596 516.426 201.287 516.426 205.84ZM474.051 217.78L467.927 229.068C467.833 229.24 467.787 229.326 467.743 229.412C467.259 230.364 466.993 231.412 466.965 232.48C466.962 232.576 466.962 232.674 466.962 232.87C466.962 233.831 466.962 234.312 466.996 234.718C467.392 239.374 471.086 243.068 475.743 243.464C476.148 243.498 476.629 243.498 477.591 243.498H511.45C511.756 243.498 511.908 243.498 512.038 243.495C517.133 243.358 521.232 239.259 521.369 234.164C521.372 234.035 521.372 233.882 521.372 233.577C521.372 233.527 521.372 233.491 521.372 233.461C521.372 233.438 521.372 233.419 521.372 233.399C521.352 231.755 520.769 230.167 519.721 228.9C519.694 228.867 519.665 228.833 519.608 228.765L519.607 228.764L516.123 224.655L516.123 224.655L516.123 224.655L516.122 224.655C514.141 222.318 513.151 221.15 511.933 220.717C511.039 220.4 510.07 220.355 509.15 220.588C507.897 220.905 506.802 221.977 504.613 224.12C502.157 226.523 500.929 227.725 499.56 228.013C498.558 228.224 497.515 228.109 496.583 227.684C495.31 227.103 494.375 225.662 492.504 222.779L488.882 217.198C485.776 212.41 484.222 210.017 482.145 209.665C481.491 209.554 480.82 209.581 480.176 209.743C478.134 210.256 476.773 212.764 474.051 217.78L474.051 217.78Z" fill="#6360CC"/>
<rect x="64.3594" y="211.5" width="175.975" height="5.02786" rx="2.51393" fill="#ECECFF"/>
<rect x="64.3594" y="221.555" width="175.975" height="5.02786" rx="2.51393" fill="#ECECFF"/>
<rect x="64.3594" y="231.609" width="95.5293" height="5.02786" rx="2.51393" fill="#ECECFF"/>
<rect x="64.3594" y="268.492" width="51.9545" height="15.0836" rx="7.54179" fill="#ECECFF"/>
<rect x="126.367" y="268.492" width="15.0836" height="15.0836" rx="7.54179" fill="#ECECFF"/>
<rect x="144.805" y="273.523" width="26.8152" height="5.02786" rx="2.51393" fill="#ECECFF"/>
<rect x="64.3594" y="132.734" width="175.975" height="11.7317" rx="5.86583" fill="#6360CC"/>
<rect x="64.3594" y="156.195" width="196.086" height="11.7317" rx="5.86583" fill="#6360CC"/>
<rect x="64.3594" y="179.664" width="130.724" height="11.7317" rx="5.86583" fill="#6360CC"/>
<mask id="mask0_2566_4403" style="mask-type:alpha" maskUnits="userSpaceOnUse" x="0" y="0" width="664" height="359">
<path d="M0 0H664V359L255.322 129.96L0 0Z" fill="url(#paint0_linear_2566_4403)"/>
</mask>
<g mask="url(#mask0_2566_4403)">
<path d="M0 17.9372C0 8.03078 8.03077 0 17.9372 0H646.063C655.969 0 664 8.03077 664 17.9372V382.063C664 391.969 655.969 400 646.063 400H17.9372C8.03074 400 0 391.969 0 382.063V17.9372Z" fill="url(#paint1_linear_2566_4403)"/>
<path d="M0.00390625 17.9372C0.00390625 8.03078 8.03467 0 17.9411 0H645.744C655.65 0 663.681 8.03077 663.681 17.9372V71.7489H0.00390625V17.9372Z" fill="#141727"/>
<ellipse cx="73.4115" cy="39.2164" rx="15.0834" ry="15.0836" fill="#434552"/>
<rect x="96.4922" y="34.8359" width="48.2674" height="8.04457" rx="4.02229" fill="#6360CC"/>
<rect opacity="0.2" x="322.223" y="33.8359" width="62.7803" height="10.7623" rx="5.38117" fill="white"/>
<rect opacity="0.2" x="393.973" y="33.8359" width="62.7803" height="10.7623" rx="5.38117" fill="white"/>
<rect opacity="0.2" x="465.719" y="33.8359" width="62.7803" height="10.7623" rx="5.38117" fill="white"/>
<rect x="537.469" y="24.8672" width="53.8117" height="28.6996" rx="8.96861" fill="white"/>
<rect x="410.277" y="132.734" width="169.364" height="170.947" rx="7.91422" fill="white" fill-opacity="0.05"/>
<path fill-rule="evenodd" clip-rule="evenodd" d="M482.521 187.703H505.814C514.357 187.703 518.628 187.703 521.623 189.879C522.59 190.581 523.44 191.432 524.143 192.399C526.319 195.393 526.319 199.665 526.319 208.208V232.358C526.319 236.718 526.319 238.898 525.73 240.657C524.595 244.049 521.933 246.71 518.542 247.845C516.783 248.434 514.603 248.434 510.243 248.434H478.091C473.732 248.434 471.552 248.434 469.792 247.845C466.401 246.71 463.739 244.049 462.605 240.657C462.016 238.898 462.016 236.718 462.016 232.358V208.208C462.016 199.665 462.016 195.393 464.191 192.399C464.894 191.432 465.744 190.581 466.711 189.879C469.706 187.703 473.977 187.703 482.521 187.703ZM516.426 205.84C516.426 210.393 512.735 214.084 508.182 214.084C503.629 214.084 499.938 210.393 499.938 205.84C499.938 201.287 503.629 197.596 508.182 197.596C512.735 197.596 516.426 201.287 516.426 205.84ZM474.051 217.78L467.927 229.068C467.833 229.24 467.787 229.326 467.743 229.412C467.259 230.364 466.993 231.412 466.965 232.48C466.962 232.576 466.962 232.674 466.962 232.87C466.962 233.831 466.962 234.312 466.996 234.718C467.392 239.374 471.086 243.068 475.743 243.464C476.148 243.498 476.629 243.498 477.591 243.498H511.45C511.756 243.498 511.908 243.498 512.038 243.495C517.133 243.358 521.232 239.259 521.369 234.164C521.372 234.035 521.372 233.882 521.372 233.577C521.372 233.527 521.372 233.491 521.372 233.461C521.372 233.438 521.372 233.419 521.372 233.399C521.352 231.755 520.769 230.167 519.721 228.9C519.694 228.867 519.665 228.833 519.608 228.765L519.607 228.764L516.123 224.655L516.123 224.655L516.123 224.655L516.122 224.655C514.141 222.318 513.151 221.15 511.933 220.717C511.039 220.4 510.07 220.355 509.15 220.588C507.897 220.905 506.802 221.977 504.613 224.12C502.157 226.523 500.929 227.725 499.56 228.013C498.558 228.224 497.515 228.109 496.583 227.684C495.31 227.103 494.375 225.662 492.504 222.779L488.882 217.198C485.776 212.41 484.222 210.017 482.145 209.665C481.491 209.554 480.82 209.581 480.176 209.743C478.134 210.256 476.773 212.764 474.051 217.78L474.051 217.78Z" fill="#6360CC"/>
<rect x="64.3594" y="211.5" width="175.975" height="5.02786" rx="2.51393" fill="#ECECFF"/>
<rect x="64.3594" y="221.555" width="175.975" height="5.02786" rx="2.51393" fill="#ECECFF"/>
<rect x="64.3594" y="231.609" width="95.5293" height="5.02786" rx="2.51393" fill="#ECECFF"/>
<rect x="64.3594" y="268.492" width="51.9545" height="15.0836" rx="7.54179" fill="#ECECFF"/>
<rect x="126.367" y="268.492" width="15.0836" height="15.0836" rx="7.54179" fill="#ECECFF"/>
<rect x="144.805" y="273.523" width="26.8152" height="5.02786" rx="2.51393" fill="#ECECFF"/>
<rect x="64.3594" y="132.734" width="175.975" height="11.7317" rx="5.86583" fill="#6360CC"/>
<rect x="64.3594" y="156.195" width="196.086" height="11.7317" rx="5.86583" fill="#6360CC"/>
<rect x="64.3594" y="179.664" width="130.724" height="11.7317" rx="5.86583" fill="#6360CC"/>
</g>
<defs>
<linearGradient id="paint0_linear_2566_4403" x1="339.165" y1="341.948" x2="338.359" y2="359.009" gradientUnits="userSpaceOnUse">
<stop stop-color="#141727"/>
<stop offset="1" stop-color="#141727" stop-opacity="0"/>
</linearGradient>
<linearGradient id="paint1_linear_2566_4403" x1="332.162" y1="390.5" x2="332" y2="400" gradientUnits="userSpaceOnUse">
<stop stop-color="#141727"/>
<stop offset="1" stop-color="#141727" stop-opacity="0"/>
</linearGradient>
</defs>
</svg>
